# xmcd
#
# Track frame offsets: 
#        150
#        10119
#        20064
#        30264
#        42578
#        54796
#        66603
#        77802
#        90363
#        103529
#        112612
#        126051
#        136857
#        149473
#        163378
#        174899
#        190454
#        206349
#        220036
#        234392
#        248260
#        263967
#        278540
#        291105
#        306489
#
# Disc length: 4291 seconds
#
# Revision: 0
# Processed by: cddbd v1.5.1PL2 Copyright (c) Steve Scherf et al.
# Submitted via: ExactAudioCopy v0.95b3
#
DISCID=5310c119
DTITLE=The Drifters - The Definitive Drifters Collection
DYEAR=2003
DGENRE=Soul
TTITLE0=ONLY IN AMERICA
TTITLE1=I FEEL GOOD ALL OVER
TTITLE2=RAT RACE
TTITLE3=IF YOU DON'T COME BACK
TTITLE4=I'LL TAKE YOU HOME
TTITLE5=IN THE LAND OF MAKE BELIEVE
TTITLE6=ONE WAY LOVE
TTITLE7=UNDER THE BOARDWALK
TTITLE8=I'VE GOT SAND IN MY SHOES
TTITLE9=SATURDAY NIGHT AT THE MOVIES
TTITLE10=AT THE CLUB
TTITLE11=COME OVER TO MY PLACE
TTITLE12=I'LL TAKE YOU TO WHERE THE MUSICS PLAYING
TTITLE13=UP IN THE STREETS OF HARLEM
TTITLE14=MEMORIES ARE MADE OF THIS
TTITLE15=LIKE SISTER and BROTHER
TTITLE16=KISSIN' IN THE BACK ROW OF THE MOVIES
TTITLE17=DOWN ON THE BEACH TONIGHT
TTITLE18=LOVE GAMES
TTITLE19=THERE GOES MY FIRST LOVE
TTITLE20=CAN I TAKE YOU HOME LITTLE GIRL
TTITLE21=HARLEM CHILD
TTITLE22=HELLO HAPPINESS
TTITLE23=EVERY NIGHTS A SATURDAY NIGHT WITH YOU
TTITLE24=YOU'RE MORE THAN A NUMBER IN MY LITTLE RED BOOK
EXTD=
EXTT0=
EXTT1=
EXTT2=
EXTT3=
EXTT4=
EXTT5=
EXTT6=
EXTT7=
EXTT8=
EXTT9=
EXTT10=
EXTT11=
EXTT12=
EXTT13=
EXTT14=
EXTT15=
EXTT16=
EXTT17=
EXTT18=
EXTT19=
EXTT20=
EXTT21=
EXTT22=
EXTT23=
EXTT24=
PLAYORDER=
